<mxfile host="www.draw.io" modified="2019-11-14T07:16:20.288Z" agent="Mozilla/5.0 (Windows NT 10.0; Win64; x64) AppleWebKit/537.36 (KHTML, like Gecko) Chrome/78.0.3904.97 Safari/537.36" etag="5jKUCHlbHabJvK1zugoZ" version="12.2.6" type="github" pages="1">
  <diagram id="KWGXRVpgaTOB837s55HI" name="Page-1">
    <mxGraphModel dx="1422" dy="762" grid="1" gridSize="10" guides="1" tooltips="1" connect="1" arrows="1" fold="1" page="1" pageScale="1" pageWidth="827" pageHeight="1169" math="0" shadow="0">
      <root>
        <mxCell id="0"/>
        <mxCell id="1" parent="0"/>
        <mxCell id="sNIOo8BEHKgzL9L6zxjI-3" value="" style="edgeStyle=orthogonalEdgeStyle;rounded=0;orthogonalLoop=1;jettySize=auto;html=1;" edge="1" parent="1" source="sNIOo8BEHKgzL9L6zxjI-1" target="sNIOo8BEHKgzL9L6zxjI-2">
          <mxGeometry relative="1" as="geometry"/>
        </mxCell>
        <mxCell id="sNIOo8BEHKgzL9L6zxjI-1" value="&lt;font style=&quot;font-size: 20px&quot;&gt;Mutect2&lt;/font&gt;" style="ellipse;whiteSpace=wrap;html=1;fillColor=#dae8fc;strokeColor=#6c8ebf;" vertex="1" parent="1">
          <mxGeometry x="160" y="110" width="120" height="80" as="geometry"/>
        </mxCell>
        <mxCell id="sNIOo8BEHKgzL9L6zxjI-7" value="" style="edgeStyle=orthogonalEdgeStyle;rounded=0;orthogonalLoop=1;jettySize=auto;html=1;" edge="1" parent="1" source="sNIOo8BEHKgzL9L6zxjI-4" target="sNIOo8BEHKgzL9L6zxjI-6">
          <mxGeometry relative="1" as="geometry"/>
        </mxCell>
        <mxCell id="sNIOo8BEHKgzL9L6zxjI-4" value="&lt;font style=&quot;font-size: 20px&quot;&gt;Polysolver&lt;/font&gt;" style="ellipse;whiteSpace=wrap;html=1;fillColor=#dae8fc;strokeColor=#6c8ebf;" vertex="1" parent="1">
          <mxGeometry x="470" y="110" width="120" height="80" as="geometry"/>
        </mxCell>
        <mxCell id="sNIOo8BEHKgzL9L6zxjI-6" value="&lt;font style=&quot;font-size: 20px&quot;&gt;HLA&lt;/font&gt;" style="ellipse;whiteSpace=wrap;html=1;fillColor=#f8cecc;strokeColor=#b85450;" vertex="1" parent="1">
          <mxGeometry x="470" y="270" width="120" height="80" as="geometry"/>
        </mxCell>
        <mxCell id="sNIOo8BEHKgzL9L6zxjI-2" value="&lt;font style=&quot;font-size: 20px&quot;&gt;VCF&lt;/font&gt;" style="ellipse;whiteSpace=wrap;html=1;fillColor=#f8cecc;strokeColor=#b85450;" vertex="1" parent="1">
          <mxGeometry x="160" y="270" width="120" height="80" as="geometry"/>
        </mxCell>
        <mxCell id="sNIOo8BEHKgzL9L6zxjI-15" value="" style="shape=curlyBracket;whiteSpace=wrap;html=1;rounded=1;rotation=-90;" vertex="1" parent="1">
          <mxGeometry x="341" y="212" width="69" height="340" as="geometry"/>
        </mxCell>
        <mxCell id="sNIOo8BEHKgzL9L6zxjI-22" value="" style="edgeStyle=orthogonalEdgeStyle;rounded=0;orthogonalLoop=1;jettySize=auto;html=1;" edge="1" parent="1" source="sNIOo8BEHKgzL9L6zxjI-20" target="sNIOo8BEHKgzL9L6zxjI-21">
          <mxGeometry relative="1" as="geometry"/>
        </mxCell>
        <mxCell id="sNIOo8BEHKgzL9L6zxjI-20" value="&lt;font style=&quot;font-size: 20px&quot;&gt;netMHCpan-4.0&lt;/font&gt;" style="ellipse;whiteSpace=wrap;html=1;fillColor=#dae8fc;strokeColor=#6c8ebf;" vertex="1" parent="1">
          <mxGeometry x="287" y="420" width="177" height="80" as="geometry"/>
        </mxCell>
        <mxCell id="sNIOo8BEHKgzL9L6zxjI-21" value="&lt;span style=&quot;font-size: 20px&quot;&gt;Candidate neoantigens&lt;/span&gt;" style="ellipse;whiteSpace=wrap;html=1;fillColor=#f8cecc;strokeColor=#b85450;" vertex="1" parent="1">
          <mxGeometry x="287" y="580" width="177" height="80" as="geometry"/>
        </mxCell>
      </root>
    </mxGraphModel>
  </diagram>
</mxfile>
